<svg width="28" height="28" viewBox="0 0 28 28" fill="none" xmlns="http://www.w3.org/2000/svg">
<path d="M21.5837 2.33337C22.8722 2.33362 23.9167 3.37886 23.9167 4.66736V11.3754C23.9166 12.0193 23.3946 12.5419 22.7507 12.5424C22.1065 12.5424 21.5839 12.0195 21.5837 11.3754V4.66736H5.25073V23.3334H13.4167C14.0609 23.3336 14.5837 23.8562 14.5837 24.5004C14.5836 25.1444 14.0608 25.6671 13.4167 25.6674H5.25073C3.9622 25.6674 2.91694 24.6219 2.91675 23.3334V4.66736C2.91675 3.37869 3.96207 2.33337 5.25073 2.33337H21.5837ZM21.3718 14.5834C23.3792 14.5837 25.0837 16.1617 25.0837 18.2006C25.0836 19.4523 24.486 20.5189 23.8914 21.3021C23.2928 22.0904 22.5748 22.7448 22.1804 23.1244C21.5471 23.7339 20.7759 24.3243 19.8806 24.8988C19.4969 25.145 19.0037 25.1448 18.6199 24.8988C17.7247 24.3244 16.9533 23.7338 16.3201 23.1244C15.9257 22.7448 15.2076 22.0904 14.6091 21.3021C14.0145 20.5189 13.4169 19.4523 13.4167 18.2006C13.4167 16.1615 15.122 14.5834 17.1296 14.5834C17.9141 14.5836 18.6467 14.8232 19.2507 15.2338C19.8549 14.8233 20.5873 14.5834 21.3718 14.5834ZM18.0828 6.99939C18.727 6.99939 19.2496 7.52219 19.2498 8.16638C19.2498 8.81071 18.7271 9.33337 18.0828 9.33337H8.74976C8.10554 9.33324 7.58276 8.81063 7.58276 8.16638C7.58293 7.52227 8.10564 6.99952 8.74976 6.99939H18.0828Z" fill="url(#paint0_linear_9938_9554)"/>
<defs>
<linearGradient id="paint0_linear_9938_9554" x1="3.50009" y1="14.0004" x2="23.9171" y2="14.0004" gradientUnits="userSpaceOnUse">
<stop stop-color="#F58A8A"/>
<stop offset="1" stop-color="#FFD0D0"/>
</linearGradient>
</defs>
</svg>
