<svg width="26" height="26" viewBox="0 0 26 26" fill="none" xmlns="http://www.w3.org/2000/svg">
<path d="M20.0413 2.16663C21.2377 2.16663 22.2079 3.13633 22.2083 4.33264V10.5621C22.2083 11.1604 21.7226 11.6451 21.1243 11.6451C20.5263 11.6447 20.0413 11.1602 20.0413 10.5621V4.33264H4.87427V21.6666H12.4583C13.0563 21.6668 13.5411 22.1516 13.5413 22.7496C13.5413 23.3478 13.0564 23.8325 12.4583 23.8326H4.87427C3.67811 23.8322 2.70843 22.8629 2.70825 21.6666V4.33264C2.7086 3.13657 3.6782 2.16702 4.87427 2.16663H20.0413ZM19.844 13.5416C21.7082 13.5416 23.2911 15.0068 23.2913 16.9C23.2911 18.0624 22.737 19.0526 22.1848 19.7799C21.629 20.5121 20.9622 21.1197 20.5959 21.4723C20.0078 22.0384 19.2908 22.5862 18.4592 23.1198C18.1028 23.3482 17.6457 23.3484 17.2893 23.1198C16.4581 22.5863 15.7416 22.0382 15.1536 21.4723C14.7872 21.1197 14.1203 20.5118 13.5647 19.7799C13.0127 19.0526 12.4584 18.0622 12.4583 16.9C12.4584 15.007 14.0407 13.542 15.9045 13.5416C16.633 13.5416 17.3133 13.7641 17.8743 14.1451C18.4352 13.7639 19.1154 13.5418 19.844 13.5416ZM16.7922 6.50061C17.3903 6.50092 17.8752 6.9855 17.8752 7.58362C17.8751 8.18158 17.3902 8.66632 16.7922 8.66663H8.12524C7.52705 8.66663 7.04242 8.18177 7.04224 7.58362C7.04224 6.98531 7.52694 6.50061 8.12524 6.50061H16.7922Z" fill="#CCCCCC"/>
</svg>
