<svg width="28" height="28" viewBox="0 0 28 28" fill="none" xmlns="http://www.w3.org/2000/svg">
<path fill-rule="evenodd" clip-rule="evenodd" d="M18.667 2.33337C19.3111 2.33362 19.834 2.85618 19.834 3.50037V7.58337H24.5C24.8242 7.58337 25.1338 7.7189 25.3545 7.95642C25.5751 8.19406 25.687 8.5129 25.6631 8.8363L24.4971 24.5863C24.4517 25.1953 23.9438 25.6674 23.333 25.6674H4.66699C4.05639 25.6671 3.5482 25.1952 3.50292 24.5863L2.33691 8.8363C2.31302 8.51306 2.42506 8.19403 2.6455 7.95642C2.86614 7.71896 3.17585 7.58349 3.49999 7.58337H8.16699V3.50037C8.16699 2.85603 8.68964 2.33337 9.33398 2.33337H18.667ZM9.33398 18.6664C8.68973 18.6665 8.16699 19.1891 8.16699 19.8334C8.16701 20.4776 8.68974 21.0003 9.33398 21.0004H18.667C19.3111 21.0001 19.834 20.4775 19.834 19.8334C19.834 19.1892 19.3111 18.6666 18.667 18.6664H9.33398ZM10.501 7.58337H17.501V4.66736H10.501V7.58337Z" fill="url(#paint0_linear_9938_9523)"/>
<defs>
<linearGradient id="paint0_linear_9938_9523" x1="2.33374" y1="14.0004" x2="25.6663" y2="14.0004" gradientUnits="userSpaceOnUse">
<stop stop-color="#FFD498"/>
<stop offset="1" stop-color="#FFB06F"/>
</linearGradient>
</defs>
</svg>
