<svg width="22" height="22" viewBox="0 0 22 22" fill="none" xmlns="http://www.w3.org/2000/svg">
<path fill-rule="evenodd" clip-rule="evenodd" d="M15.167 0C15.7649 0.000351388 16.2499 0.485057 16.25 1.08301V4.875H20.583C20.8842 4.87501 21.172 5.00009 21.377 5.2207C21.5819 5.44135 21.6853 5.73781 21.6631 6.03809L20.5801 20.6631C20.5382 21.2286 20.0671 21.6658 19.5 21.666H2.16604C1.59894 21.6658 1.12789 21.2287 1.08596 20.6631L0.00295024 6.03809C-0.0192094 5.73779 0.0841757 5.44135 0.289083 5.2207C0.494051 5.00009 0.781885 4.875 1.08303 4.875H5.41701V1.08301C5.41718 0.48484 5.90181 0 6.50002 0H15.167ZM6.50002 15.167C5.90171 15.167 5.41701 15.6517 5.41701 16.25C5.41703 16.8483 5.90173 17.333 6.50002 17.333H15.167C15.765 17.3326 16.25 16.8481 16.25 16.25C16.25 15.6519 15.765 15.1674 15.167 15.167H6.50002ZM7.58303 4.875H14.083V2.16602H7.58303V4.875Z" fill="#CCCCCC"/>
</svg>
