<svg width="26" height="26" viewBox="0 0 26 26" fill="none" xmlns="http://www.w3.org/2000/svg">
<path d="M19.6223 17.432C19.7943 16.8593 20.3982 16.534 20.9709 16.7054C22.0074 17.0164 22.9259 17.4087 23.6086 17.8929C24.2631 18.3572 24.9161 19.0677 24.9163 20.0414C24.9163 21.0151 24.2632 21.7255 23.6086 22.1898C22.9258 22.6741 22.0074 23.0664 20.9709 23.3773C18.8841 24.0033 16.0656 24.3754 12.9993 24.3754C9.93291 24.3753 7.11436 24.0034 5.02759 23.3773C3.9913 23.0664 3.07353 22.674 2.39087 22.1898C1.73636 21.7255 1.08325 21.0151 1.08325 20.0414C1.08342 19.0677 1.73634 18.3572 2.39087 17.8929C3.07357 17.4087 3.99122 17.0164 5.02759 16.7054C5.60055 16.5336 6.20513 16.8591 6.3772 17.432C6.54912 18.0051 6.22371 18.6097 5.65063 18.7816C4.727 19.0587 4.05834 19.3672 3.64478 19.6605C3.36169 19.8613 3.2797 19.993 3.25708 20.0414C3.27943 20.0894 3.36103 20.2219 3.64478 20.4232C4.05835 20.7165 4.72719 21.0251 5.65063 21.3021C7.48449 21.8523 10.0831 22.2083 12.9993 22.2084C15.9156 22.2084 18.5149 21.8523 20.3489 21.3021C21.2724 21.025 21.9412 20.7165 22.3547 20.4232C22.6382 20.2222 22.7189 20.0896 22.7415 20.0414C22.7185 19.9926 22.6369 19.8607 22.3547 19.6605C21.9412 19.3673 21.2724 19.0587 20.3489 18.7816C19.776 18.6096 19.4504 18.005 19.6223 17.432ZM13.0002 1.08337C17.4616 1.08374 21.1249 4.61873 21.1252 9.03552C21.1252 12.1417 19.098 14.8902 17.2981 16.7465C16.3742 17.6993 15.4536 18.4741 14.7659 19.0101C14.4213 19.2787 14.1325 19.4895 13.928 19.6342C13.8261 19.7062 13.7447 19.7625 13.6877 19.8011C13.6595 19.8203 13.6363 19.8355 13.6204 19.8461C13.6128 19.8511 13.6064 19.8557 13.6018 19.8588C13.5997 19.8601 13.5974 19.8617 13.5959 19.8627L13.594 19.8636L13.593 19.8646C13.2331 20.0998 12.7675 20.0997 12.4075 19.8646L13.0002 18.9584L12.4065 19.8646L12.4045 19.8627C12.4032 19.8618 12.4007 19.8601 12.3987 19.8588C12.3941 19.8557 12.3868 19.8512 12.3792 19.8461C12.3633 19.8355 12.3407 19.8201 12.3127 19.8011C12.2557 19.7625 12.1735 19.7063 12.0715 19.6342C11.8671 19.4895 11.5781 19.2786 11.2336 19.0101C10.5459 18.4741 9.62526 17.6992 8.70142 16.7465C6.90156 14.8902 4.87524 12.1416 4.87524 9.03552C4.87554 4.61861 8.53872 1.08355 13.0002 1.08337ZM13.0002 5.41736C10.9064 5.41753 9.20942 7.11457 9.20923 9.20837C9.20939 11.3022 10.9064 13.0002 13.0002 13.0004C15.0939 13 16.7921 11.3021 16.7922 9.20837C16.792 7.1147 15.0939 5.41773 13.0002 5.41736Z" fill="url(#paint0_linear_9938_9493)"/>
<defs>
<linearGradient id="paint0_linear_9938_9493" x1="1.08325" y1="12.7294" x2="24.9163" y2="12.7294" gradientUnits="userSpaceOnUse">
<stop stop-color="#B8F6E0"/>
<stop offset="1" stop-color="#4EDAC5"/>
</linearGradient>
</defs>
</svg>
