<svg width="24" height="24" viewBox="0 0 24 24" fill="none" xmlns="http://www.w3.org/2000/svg">
<path d="M18.1133 16.0918C18.272 15.5628 18.8294 15.2622 19.3584 15.4209C20.3152 15.7079 21.1627 16.0696 21.793 16.5166C22.3972 16.9452 22.9999 17.6012 23 18.5C22.9999 19.3988 22.3971 20.0548 21.793 20.4834C21.1627 20.9304 20.3152 21.2921 19.3584 21.5791C17.432 22.157 14.8307 22.5 12 22.5C9.16933 22.5 6.56797 22.157 4.6416 21.5791C3.68485 21.2921 2.83729 20.9304 2.20703 20.4834C1.60286 20.0548 1.00007 19.3988 1 18.5C1.00009 17.6012 1.60283 16.9452 2.20703 16.5166C2.83731 16.0696 3.68479 15.7079 4.6416 15.4209C5.17057 15.2622 5.72803 15.5628 5.88672 16.0918C6.04517 16.6207 5.74469 17.1783 5.21582 17.3369C4.36325 17.5927 3.74596 17.8777 3.36426 18.1484C3.10373 18.3333 3.02891 18.4551 3.00781 18.5C3.02878 18.5448 3.10312 18.6673 3.36426 18.8525C3.74599 19.1233 4.36327 19.4083 5.21582 19.6641C6.90873 20.1719 9.3079 20.5 12 20.5C14.6921 20.5 17.0913 20.1719 18.7842 19.6641C19.6368 19.4083 20.254 19.1233 20.6357 18.8525C20.8962 18.6678 20.97 18.545 20.9912 18.5C20.9699 18.4548 20.8955 18.3327 20.6357 18.1484C20.254 17.8777 19.6367 17.5927 18.7842 17.3369C18.2553 17.1782 17.9548 16.6207 18.1133 16.0918ZM12 1C16.1186 1 19.4999 4.26339 19.5 8.34082C19.5 11.2081 17.6292 13.7445 15.9678 15.458C15.1149 16.3376 14.2657 17.053 13.6309 17.5479C13.3126 17.7959 13.0452 17.9905 12.8564 18.124C12.7622 18.1907 12.6874 18.2426 12.6348 18.2783C12.6086 18.2961 12.5879 18.3105 12.5732 18.3203C12.566 18.3252 12.56 18.3292 12.5557 18.332L12.5479 18.3359V18.3369L12 17.5L12.5469 18.3369C12.2145 18.5541 11.7855 18.5541 11.4531 18.3369L12 17.5L11.4521 18.3369V18.3359L11.4443 18.332C11.44 18.3292 11.434 18.3252 11.4268 18.3203C11.4121 18.3105 11.3914 18.2961 11.3652 18.2783C11.3126 18.2426 11.2378 18.1907 11.1436 18.124C10.9548 17.9905 10.6874 17.7959 10.3691 17.5479C9.73425 17.053 8.88508 16.3376 8.03223 15.458C6.37077 13.7445 4.5 11.2081 4.5 8.34082C4.50006 4.26341 7.88143 1.00002 12 1ZM12 5C10.067 5 8.50002 6.56703 8.5 8.5C8.5 10.433 10.067 12 12 12C13.933 12 15.5 10.433 15.5 8.5C15.5 6.56704 13.933 5.00002 12 5Z" fill="#CCCCCC"/>
</svg>
