<svg width="23" height="23" viewBox="0 0 23 23" fill="none" xmlns="http://www.w3.org/2000/svg">
<g clip-path="url(#clip0_9938_9587)">
<path d="M10.9689 4.10245C11.2248 6.52789 10.1505 8.63039 8.56933 8.79809C6.98815 8.96483 5.49896 7.13353 5.24214 4.70618C4.98627 2.27978 6.06052 0.179195 7.6417 0.0105357C9.22289 -0.156207 10.713 1.67605 10.9689 4.10245ZM5.37151 9.45069C6.2426 11.4832 5.85065 13.602 4.49467 14.1818C3.13964 14.7625 1.33517 13.5857 0.464083 11.5532C-0.407964 9.5216 -0.0150637 7.40377 1.34092 6.82209C2.69595 6.24136 4.50042 7.41815 5.37151 9.45069ZM18.2941 5.73155C17.4805 7.92604 15.6348 9.26478 14.1715 8.72238C12.7082 8.17999 12.1821 5.96058 12.9957 3.76609C13.8102 1.57255 15.655 0.23286 17.1183 0.776212C18.5816 1.31861 19.1077 3.53706 18.2941 5.73155ZM22.5815 13.0999C21.7602 15.1238 19.9999 16.3197 18.6496 15.7726C17.3004 15.2244 16.8729 13.1401 17.6942 11.1152C18.5164 9.09133 20.2768 7.89538 21.6261 8.44352C22.9754 8.99167 23.4037 11.076 22.5815 13.0999ZM10.1266 22.0063C8.86736 22.5812 6.96132 23.022 5.09552 22.3896C3.2278 21.76 3.1751 19.9459 4.72657 17.3422C6.27709 14.7395 9.48546 10.4272 12.6143 11.8464C15.7431 13.2666 19.1614 17.8683 18.7407 20.8132C18.32 23.758 13.8582 22.2142 13.1663 21.9181C11.6943 21.2856 10.7063 21.7418 10.1266 22.0063Z" fill="url(#paint0_linear_9938_9587)"/>
<path d="M10.9689 4.10245C11.2248 6.52789 10.1505 8.63039 8.56933 8.79809C6.98815 8.96483 5.49896 7.13353 5.24214 4.70618C4.98627 2.27978 6.06052 0.179195 7.6417 0.0105357C9.22289 -0.156207 10.713 1.67605 10.9689 4.10245ZM5.37151 9.45069C6.2426 11.4832 5.85065 13.602 4.49467 14.1818C3.13964 14.7625 1.33517 13.5857 0.464083 11.5532C-0.407964 9.5216 -0.0150637 7.40377 1.34092 6.82209C2.69595 6.24136 4.50042 7.41815 5.37151 9.45069ZM18.2941 5.73155C17.4805 7.92604 15.6348 9.26478 14.1715 8.72238C12.7082 8.17999 12.1821 5.96058 12.9957 3.76609C13.8102 1.57255 15.655 0.23286 17.1183 0.776212C18.5816 1.31861 19.1077 3.53706 18.2941 5.73155ZM22.5815 13.0999C21.7602 15.1238 19.9999 16.3197 18.6496 15.7726C17.3004 15.2244 16.8729 13.1401 17.6942 11.1152C18.5164 9.09133 20.2768 7.89538 21.6261 8.44352C22.9754 8.99167 23.4037 11.076 22.5815 13.0999ZM10.1266 22.0063C8.86736 22.5812 6.96132 23.022 5.09552 22.3896C3.2278 21.76 3.1751 19.9459 4.72657 17.3422C6.27709 14.7395 9.48546 10.4272 12.6143 11.8464C15.7431 13.2666 19.1614 17.8683 18.7407 20.8132C18.32 23.758 13.8582 22.2142 13.1663 21.9181C11.6943 21.2856 10.7063 21.7418 10.1266 22.0063Z" fill="url(#paint1_linear_9938_9587)"/>
</g>
<defs>
<linearGradient id="paint0_linear_9938_9587" x1="11.4997" y1="0" x2="11.4997" y2="22.6995" gradientUnits="userSpaceOnUse">
<stop stop-color="#CCCCCC"/>
<stop offset="1" stop-color="#666666"/>
</linearGradient>
<linearGradient id="paint1_linear_9938_9587" x1="0" y1="11.3498" x2="22.9995" y2="11.3498" gradientUnits="userSpaceOnUse">
<stop stop-color="#B88DEA"/>
<stop offset="1" stop-color="#E9C3FF"/>
</linearGradient>
<clipPath id="clip0_9938_9587">
<rect width="23" height="23" fill="white"/>
</clipPath>
</defs>
</svg>
