<svg width="21" height="21" viewBox="0 0 21 21" fill="none" xmlns="http://www.w3.org/2000/svg">
<g clip-path="url(#clip0_9938_9550)">
<path d="M10.0151 3.74572C10.2487 5.96025 9.26786 7.87992 7.82417 8.03304C6.38048 8.18528 5.02079 6.51323 4.7863 4.29694C4.55268 2.08153 5.53352 0.163613 6.97721 0.00961952C8.4209 -0.142624 9.78147 1.53031 10.0151 3.74572ZM4.90442 8.62889C5.69976 10.4847 5.3419 12.4192 4.10383 12.9486C2.86663 13.4788 1.21907 12.4044 0.423728 10.5486C-0.372489 8.69364 -0.0137538 6.75997 1.22432 6.22886C2.46152 5.69864 4.10908 6.77309 4.90442 8.62889ZM16.7033 5.23315C15.9605 7.23682 14.2753 8.45915 12.9392 7.96392C11.6031 7.46869 11.1228 5.44227 11.8656 3.4386C12.6094 1.43581 14.2937 0.212611 15.6297 0.708716C16.9658 1.20395 17.4462 3.22949 16.7033 5.23315ZM20.6179 11.9608C19.8681 13.8087 18.2607 14.9006 17.0279 14.401C15.796 13.9005 15.4057 11.9975 16.1556 10.1487C16.9063 8.30078 18.5136 7.20882 19.7456 7.7093C20.9775 8.20978 21.3686 10.1128 20.6179 11.9608ZM9.24599 20.0927C8.09629 20.6176 6.35598 21.0201 4.65243 20.4427C2.94712 19.8678 2.899 18.2115 4.31557 15.8342C5.73126 13.4578 8.66064 9.52048 11.5174 10.8163C14.3742 12.113 17.4951 16.3146 17.111 19.0033C16.7269 21.6921 12.6531 20.2825 12.0214 20.0122C10.6774 19.4347 9.77534 19.8512 9.24599 20.0927Z" fill="#CCCCCC"/>
</g>
<defs>
<clipPath id="clip0_9938_9550">
<rect width="21" height="21" fill="white"/>
</clipPath>
</defs>
</svg>
